<svg width="447" height="229" viewBox="0 0 447 229" fill="none" xmlns="http://www.w3.org/2000/svg">
<path d="M180.4 218C170.16 217.52 165.84 205.36 164.56 191.6C160.56 203.12 153.68 218.64 145.04 218C131.6 217.2 126.48 190.96 132.4 168.24C132.4 168.24 137.36 148.56 154.96 151.12C159.6 151.76 162.8 154.64 165.04 158C165.2 156.4 165.36 155.12 165.36 154C165.68 151.92 167.28 150 169.36 149.36C171.6 148.72 174.64 148.24 177.36 149.68C179.76 150.8 181.04 153.52 180.72 156.24C179.28 167.6 174 212.24 181.36 213.04C181.36 213.04 189.68 211.44 198.48 175.76C198.48 175.76 198.96 172.72 201.04 172.88C203.12 173.2 202.48 176.08 202.48 176.08C202.48 176.08 195.92 218.8 180.4 218ZM147.28 155.12C147.28 155.12 140.88 154.16 140.56 160.24C140.56 160.24 145.52 155.6 147.28 155.12ZM146 212.08C153.04 211.44 161.36 183.12 163.44 175.6C162.32 167.12 159.28 156.88 155.12 157.04C150.32 157.2 146.16 179.76 146.16 179.76C142.32 205.04 146 212.08 146 212.08ZM268.86 172.88C270.78 173.2 270.14 176.08 270.14 176.08C270.14 176.08 263.58 218.8 248.06 218C235.26 217.36 230.78 202.64 231.58 181.52C231.58 181.52 232.22 157.52 230.46 158.48C230.46 158.48 216.7 182.96 214.14 212.4H213.98C213.98 213.52 213.66 214.48 213.02 215.44C211.9 216.88 210.14 217.84 208.22 218.16C204.86 218.64 201.34 217.04 200.7 213.84C198.62 203.28 197.82 191.6 197.5 180.4C197.5 180.4 197.18 167.28 198.94 154C199.26 151.6 201.18 149.52 203.58 148.88C205.98 148.24 209.02 148.08 212.06 150C213.82 150.96 214.62 153.04 214.3 154.96C213.5 159.44 212.06 169.2 211.58 180.08C211.42 184.56 211.58 189.2 211.9 193.84C215.42 176.24 222.3 150.16 232.7 150.16C249.82 150.32 246.46 181.36 246.46 181.36C245.82 196.24 244.7 212.56 249.02 213.04C249.02 213.04 257.34 211.44 266.14 175.76C266.14 175.76 266.62 172.72 268.86 172.88ZM201.98 155.92C201.98 155.92 204.06 152.08 206.62 150.96C206.62 150.96 201.34 149.68 201.98 155.92ZM280.848 218C262.288 219.6 262.608 168.08 264.208 135.92C260.207 136.08 256.047 136.08 252.047 135.44C251.247 135.28 250.287 134.16 250.287 132.88C250.287 132.88 249.647 130 251.567 130.32C255.887 130.96 260.207 131.12 264.528 130.96C264.848 124.72 265.168 119.44 265.488 115.92C265.648 113.52 267.088 111.44 269.488 110.64C272.688 109.68 276.368 110.48 278.768 112.88C279.568 113.52 279.888 114.64 279.888 115.76C279.728 118.16 279.408 123.12 278.928 129.52C285.648 128.88 292.368 128.4 299.088 129.52C300.048 129.68 300.848 130.8 301.008 132.08C301.008 132.08 301.807 134.96 299.728 134.64C292.688 133.52 285.648 134 278.768 134.64C277.328 163.44 275.888 212.4 281.648 213.04C281.648 213.04 291.088 211.76 299.728 176.08C299.728 176.08 300.368 172.88 302.608 172.88C305.168 173.04 304.208 176.72 304.208 176.72C304.208 176.72 296.208 216.72 280.848 218ZM267.888 117.84C267.888 117.84 270.128 113.52 271.568 112.72C271.568 112.72 266.768 112.4 267.888 117.84ZM349.306 218C339.066 217.52 334.746 205.36 333.466 191.6C329.466 203.12 322.586 218.64 313.946 218C300.506 217.2 295.386 190.96 301.306 168.24C301.306 168.24 306.266 148.56 323.866 151.12C328.506 151.76 331.706 154.64 333.946 158C334.106 156.4 334.266 155.12 334.266 154C334.586 151.92 336.186 150 338.266 149.36C340.506 148.72 343.546 148.24 346.266 149.68C348.666 150.8 349.946 153.52 349.626 156.24C348.186 167.6 342.906 212.24 350.266 213.04C350.266 213.04 358.586 211.44 367.386 175.76C367.386 175.76 367.866 172.72 369.946 172.88C372.026 173.2 371.386 176.08 371.386 176.08C371.386 176.08 364.826 218.8 349.306 218ZM316.186 155.12C316.186 155.12 309.786 154.16 309.466 160.24C309.466 160.24 314.426 155.6 316.186 155.12ZM314.906 212.08C321.946 211.44 330.266 183.12 332.346 175.6C331.226 167.12 328.186 156.88 324.026 157.04C319.226 157.2 315.066 179.76 315.066 179.76C311.226 205.04 314.906 212.08 314.906 212.08Z" fill="black"/>
<path d="M149.08 128C119.8 129.12 120.44 95.52 126.04 78.24C126.04 78.24 131.32 58.24 148.92 60.8C148.92 60.8 163.32 62.56 160.12 83.84C157.88 98.72 146.84 104.96 139.16 107.36C140.12 115.68 143.16 122.24 148.44 122.88C148.44 122.88 167.8 121.44 176.44 85.76C176.44 85.76 176.92 82.72 179.16 82.88C181.08 83.2 180.44 86.08 180.44 86.08C180.44 86.08 175.96 127.68 149.08 128ZM142.84 63.84C142.84 63.84 136.92 62.08 134.84 69.44C134.84 69.44 140.44 64.64 142.84 63.84ZM139.96 89.76C139.16 93.6 138.84 97.6 138.84 101.44C144.12 99.68 151.64 94.88 153.88 84.96C156.76 72 149.08 66.72 149.08 66.72C144.28 66.88 139.96 89.76 139.96 89.76ZM231.66 82.88C233.58 83.2 232.94 86.08 232.94 86.08C232.94 86.08 228.46 127.68 201.58 128C172.3 129.12 172.94 95.52 178.54 78.24C178.54 78.24 184.3 56.32 201.74 58.88C215.5 61.6 218.38 69.92 212.78 82.4C212.14 83.52 210.38 83.36 210.06 81.92C208.94 73.76 205.9 64.64 201.9 64.8C197.26 64.96 192.46 89.76 192.46 89.76C189.58 104.8 192.14 121.76 200.94 122.88C200.94 122.88 220.3 121.44 228.94 85.76C228.94 85.76 229.42 82.72 231.66 82.88ZM194.86 63.84C194.86 63.84 189.1 62.08 187.02 69.44C187.02 69.44 192.62 64.64 194.86 63.84ZM284.008 83.04C286.408 83.68 285.288 87.04 285.288 87.04C283.848 92.32 278.248 98.72 270.088 98.56C251.208 98.24 255.368 70.88 255.368 70.88C250.728 78.72 244.488 98.72 243.528 116.48C243.688 118.24 244.008 120 244.168 121.76C244.328 123.04 244.008 124.32 243.208 125.44C242.088 126.88 240.328 127.84 238.408 128.16C235.048 128.64 231.528 127.04 230.888 123.84C228.808 113.28 228.008 101.6 227.688 90.4C227.688 90.4 227.368 77.28 229.128 64C229.448 61.6 231.368 59.52 233.768 58.88C236.168 58.24 239.208 58.08 242.248 60C244.008 60.96 244.807 63.04 244.488 64.96C243.848 68.32 242.888 74.56 242.248 82.08C241.928 86.24 241.768 89.6 241.608 91.84C245.128 77.6 251.048 60.16 259.528 60.16C269.128 60.32 269.928 69.28 270.248 77.92C270.248 77.92 270.408 83.84 268.328 91.04C267.368 93.92 275.528 96 280.328 86.08C280.328 86.08 281.768 82.4 284.008 83.04ZM231.528 66.56C231.528 66.56 234.247 62.88 237.608 61.44C237.608 61.44 231.688 59.68 231.528 66.56ZM305.799 128C276.519 129.12 277.159 95.52 282.759 78.24C282.759 78.24 288.039 58.24 305.639 60.8C305.639 60.8 320.039 62.56 316.839 83.84C314.599 98.72 303.559 104.96 295.879 107.36C296.839 115.68 299.879 122.24 305.159 122.88C305.159 122.88 324.519 121.44 333.159 85.76C333.159 85.76 333.639 82.72 335.879 82.88C337.799 83.2 337.159 86.08 337.159 86.08C337.159 86.08 332.679 127.68 305.799 128ZM299.559 63.84C299.559 63.84 293.639 62.08 291.559 69.44C291.559 69.44 297.159 64.64 299.559 63.84ZM296.679 89.76C295.879 93.6 295.559 97.6 295.559 101.44C300.839 99.68 308.359 94.88 310.599 84.96C313.479 72 305.799 66.72 305.799 66.72C300.999 66.88 296.679 89.76 296.679 89.76ZM348.379 128C329.819 129.6 330.139 78.08 331.739 45.92C327.739 46.08 323.579 46.08 319.579 45.44C318.779 45.28 317.819 44.16 317.819 42.88C317.819 42.88 317.179 40 319.099 40.32C323.419 40.96 327.739 41.12 332.059 40.96C332.379 34.72 332.699 29.44 333.019 25.92C333.179 23.52 334.619 21.44 337.019 20.64C340.219 19.68 343.899 20.48 346.299 22.88C347.099 23.52 347.419 24.64 347.419 25.76C347.259 28.16 346.939 33.12 346.459 39.52C353.179 38.88 359.899 38.4 366.619 39.52C367.579 39.68 368.379 40.8 368.539 42.08C368.539 42.08 369.339 44.96 367.259 44.64C360.219 43.52 353.179 44 346.299 44.64C344.859 73.44 343.419 122.4 349.179 123.04C349.179 123.04 358.619 121.76 367.259 86.08C367.259 86.08 367.899 82.88 370.139 82.88C372.699 83.04 371.739 86.72 371.739 86.72C371.739 86.72 363.739 126.72 348.379 128ZM335.419 27.84C335.419 27.84 337.659 23.52 339.099 22.72C339.099 22.72 334.299 22.4 335.419 27.84Z" fill="black"/>
<path d="M138.009 148.866C129.014 148.866 120.79 149.38 113.08 150.408C118.22 158.889 121.818 167.37 121.561 174.823C120.276 201.037 100.487 215.943 69.904 213.63C69.904 213.63 42.148 212.859 43.947 182.276C44.975 165.057 62.708 154.52 83.011 148.609C74.016 138.329 64.507 130.105 64.507 130.105C58.596 124.708 43.947 110.059 43.433 91.2983C31.097 93.8683 17.733 97.7233 14.906 105.176C14.906 105.176 15.42 107.746 14.649 108.517C13.364 109.802 11.565 108.003 11.565 108.003C8.481 104.662 0.771 95.1533 13.364 85.9013C19.789 81.0183 32.125 78.9623 45.489 77.1633C46.003 75.8783 46.517 74.3363 47.288 73.0513C61.68 42.4683 90.207 41.6973 90.207 41.6973C90.207 41.6973 98.431 40.9263 103.314 46.0663C106.655 49.1503 109.225 55.5753 104.342 65.5983C98.174 78.4483 80.955 83.8453 67.077 86.6723C68.619 93.3543 72.988 100.55 80.698 110.316C80.698 110.316 85.581 116.227 92.777 124.194C97.66 129.848 103.314 136.273 108.197 143.212C120.533 141.67 131.841 141.156 138.523 141.413C138.523 141.413 144.177 141.413 144.177 145.268C144.177 149.123 138.009 148.866 138.009 148.866ZM85.838 45.5523C85.838 45.5523 77.357 43.2393 72.474 50.9493C72.474 50.9493 85.324 45.5523 85.838 45.5523ZM72.731 65.0843C70.418 68.1683 68.876 71.2523 67.591 74.0793C81.469 72.0233 93.291 68.9393 97.917 62.2573C101.258 57.1173 100.23 52.7483 98.688 50.9493C97.403 49.4073 94.576 49.6643 94.576 49.6643C94.576 49.6643 83.011 50.1783 72.731 65.0843ZM70.161 206.948C86.609 209.775 101.515 194.869 100.23 176.365C99.716 170.711 95.09 163.001 89.179 155.805C70.675 161.973 59.624 171.225 57.568 180.22C53.713 195.126 70.161 206.948 70.161 206.948Z" fill="black"/>
</svg>
