<svg width="145" height="176" viewBox="0 0 145 176" fill="none" xmlns="http://www.w3.org/2000/svg">
<path d="M138.009 107.979C129.014 107.979 120.79 108.493 113.08 109.521C118.22 118.002 121.818 126.483 121.561 133.936C120.276 160.15 100.487 175.056 69.904 172.743C69.904 172.743 42.148 171.972 43.947 141.389C44.975 124.17 62.708 113.633 83.011 107.722C74.016 97.442 64.507 89.218 64.507 89.218C58.596 83.821 43.947 69.172 43.433 50.411C31.097 52.981 17.733 56.836 14.906 64.289C14.906 64.289 15.42 66.859 14.649 67.63C13.364 68.915 11.565 67.116 11.565 67.116C8.481 63.775 0.771 54.266 13.364 45.014C19.789 40.131 32.125 38.075 45.489 36.276C46.003 34.991 46.517 33.449 47.288 32.164C61.68 1.58099 90.207 0.809996 90.207 0.809996C90.207 0.809996 98.431 0.0389903 103.314 5.17899C106.655 8.26299 109.225 14.688 104.342 24.711C98.174 37.561 80.955 42.958 67.077 45.785C68.619 52.467 72.988 59.663 80.698 69.429C80.698 69.429 85.581 75.34 92.777 83.307C97.66 88.961 103.314 95.386 108.197 102.325C120.533 100.783 131.841 100.269 138.523 100.526C138.523 100.526 144.177 100.526 144.177 104.381C144.177 108.236 138.009 107.979 138.009 107.979ZM85.838 4.66499C85.838 4.66499 77.357 2.35199 72.474 10.062C72.474 10.062 85.324 4.66499 85.838 4.66499ZM72.731 24.197C70.418 27.281 68.876 30.365 67.591 33.192C81.469 31.136 93.291 28.052 97.917 21.37C101.258 16.23 100.23 11.861 98.688 10.062C97.403 8.51999 94.576 8.77699 94.576 8.77699C94.576 8.77699 83.011 9.29099 72.731 24.197ZM70.161 166.061C86.609 168.888 101.515 153.982 100.23 135.478C99.716 129.824 95.09 122.114 89.179 114.918C70.675 121.086 59.624 130.338 57.568 139.333C53.713 154.239 70.161 166.061 70.161 166.061Z" fill="url(#paint0_linear_50_2)"/>
<defs>
<linearGradient id="paint0_linear_50_2" x1="63" y1="-33" x2="63" y2="169.113" gradientUnits="userSpaceOnUse">
<stop offset="0.36" stop-color="#009571"/>
<stop offset="1" stop-color="#A4EBC9"/>
</linearGradient>
</defs>
</svg>
